Coordinates
version=1
nRows=12
nColumns=24
inDegrees=yes

Units are S.I. units (second, meters, Newtons, ...)
Angles are in degrees.

endheader
time	pelvis_tilt	pelvis_list	pelvis_rotation	pelvis_tx	pelvis_ty	pelvis_tz	hip_flexion_r	hip_adduction_r	hip_rotation_r	knee_angle_r	ankle_angle_r	subtalar_angle_r	mtp_angle_r	hip_flexion_l	hip_adduction_l	hip_rotation_l	knee_angle_l	ankle_angle_l	subtalar_angle_l	mtp_angle_l	lumbar_extension	lumbar_bending	lumbar_rotation
      4.35500000	     16.88800339	     -0.01530815	      1.90383605	      0.11106314	      0.97058633	      0.06290421	    -16.88279238	      1.83160693	     -0.79827537	     -0.41367775	     12.54950818	      3.90798287	     29.71926896	    -11.19898581	    -11.08946749	    -12.49788176	    -50.55813983	      1.11242740	      2.61088412	     44.86329961	    -25.92000447	      4.75371061	      1.03713105
      4.36000000	     16.72107487	      0.05830697	      1.95309228	      0.11492904	      0.97052322	      0.06329910	    -17.07202240	      1.80150506	     -0.95337701	     -0.20640909	     12.76719083	      4.18195186	     28.80950786	    -10.40636976	    -11.10363402	    -12.49652081	    -50.63255049	      1.99571238	      3.11684944	     42.41030425	    -25.81614692	      4.69304077	      1.01108982
      4.36500000	     16.64767373	      0.13849044	      1.97454004	      0.11883054	      0.97056213	      0.06372797	    -17.37125558	      1.76651511	     -1.08780335	      0.02171875	     12.89518945	      4.25692097	     28.78944879	     -9.77436690	    -11.09714218	    -12.56049418	    -50.54686440	      2.78000940	      3.54400783	     42.44184464	    -25.81352069	      4.61353743	      1.02366059
      4.37000000	     16.52016442	      0.20847932	      2.00081323	      0.12270786	      0.97050068	      0.06411117	    -17.59709514	      1.73658967	     -1.23443668	      0.22671774	     13.02701581	      4.38246434	     28.75543686	     -9.08126931	    -11.08397128	    -12.61856749	    -50.41528539	      3.54771036	      3.97405925	     42.42852027	    -25.75453246	      4.54764715	      1.03674594
      4.37500000	     16.36236129	      0.22146553	      2.01905162	      0.12655467	      0.97033910	      0.06449129	    -17.76525593	      1.75931108	     -1.37545418	      0.39251960	     13.19574511	      4.63136102	     28.61992304	     -8.35338233	    -11.12654010	    -12.71633390	    -50.25909505	      4.32999105	      4.41553988	     42.19618355	    -25.66737107	      4.53752739	      1.07785390
      4.38000000	     16.24992166	      0.30692389	      2.03494946	      0.13039048	      0.97025903	      0.06482167	    -17.99094604	      1.70756784	     -1.52850630	      0.56917038	     13.35588156	      4.73403306	     28.55214683	     -7.71353125	    -11.05196965	    -12.77073984	    -49.95976935	      5.05955433	      4.85420723	     42.11516169	    -25.63412805	      4.45212952	      1.10173316
      4.38500000	     16.10748232	      0.32968840	      2.04168255	      0.13421802	      0.97008156	      0.06515583	    -18.16161602	      1.71441269	     -1.67525088	      0.70972191	     13.53166433	      4.94723100	     28.45646675	     -7.03818170	    -11.04492623	    -12.87760186	    -49.64672894	      5.79849349	      5.29561218	     41.96572680	    -25.56712666	      4.42803804	      1.17724545
      4.39000000	     15.97026477	      0.34724952	      2.04432599	      0.13804009	      0.96988645	      0.06544900	    -18.32882584	      1.72127333	     -1.82350087	      0.83192196	     13.72948786	      5.18901740	     28.31905000	     -6.38855758	    -11.02137439	    -12.98643616	    -49.25270742	      6.51326452	      5.69816262	     41.73802183	    -25.50888197	      4.41178498	      1.25860140
      4.39500000	     15.86650906	      0.38741367	      2.04094276	      0.14187163	      0.96974562	      0.06567092	    -18.51088274	      1.69490150	     -2.07560358	      0.88905515	     14.11849696	      5.79024849	     26.15184576	     -5.80269915	    -10.94118433	    -13.08510077	    -48.78785591	      7.37233449	      6.17947593	     38.16914582	    -25.48769929	      4.37675407	      1.34619658
      4.40000000	     15.72675015	      0.38199938	      2.02386643	      0.14565840	      0.96950269	      0.06597022	    -18.66529949	      1.71791112	     -2.12930052	      1.00211842	     14.30912193	      5.89045940	     26.13095169	     -5.18269474	    -10.91150295	    -13.22309479	    -48.25574416	      8.00878643	      6.46131171	     38.18356470	    -25.43309152	      4.37391025	      1.45170547
      4.40500000	     15.60108113	      0.37941476	      2.00042810	      0.14944945	      0.96927743	      0.06622707	    -18.82207643	      1.73121045	     -2.21840073	      1.08854400	     14.49827526	      6.09170360	     26.08759661	     -4.60251202	    -10.85644008	    -13.36455141	    -47.63814091	      8.60107261	      6.69013419	     38.14263046	    -25.39419601	      4.37038289	      1.57599936
      4.41000000	     15.50109565	      0.38539970	      1.97361201	      0.15320674	      0.96908862	      0.06643778	    -19.01029725	      1.73100499	     -2.26525004	      1.18787152	     14.61679566	      6.20924435	     26.06457439	     -4.07359014	    -10.76038139	    -13.48574781	    -46.92632699	      9.14374935	      6.73999084	     38.12297929	    -25.38867540	      4.36048342	      1.69743820
